<?xml version="1.0" encoding="utf-8"?>
<!-- Generator: Adobe Illustrator 16.0.0, SVG Export Plug-In . SVG Version: 6.00 Build 0)  -->
<!DOCTYPE svg PUBLIC "-//W3C//DTD SVG 1.1//EN" "http://www.w3.org/Graphics/SVG/1.1/DTD/svg11.dtd">
<svg version="1.1" xmlns="http://www.w3.org/2000/svg" xmlns:xlink="http://www.w3.org/1999/xlink" x="0px" y="0px"
	 width="1700.787px" height="212.474px" viewBox="0 0 1700.787 212.474" enable-background="new 0 0 1700.787 212.474"
	 xml:space="preserve">
<g id="Layer_1">
</g>
<g id="Isolation_Mode">
	<g>
		<g>
			<path fill="none" d="M839.109,92.257c-20.27,0-36.702,18.743-36.702,41.868c0,23.119,16.433,41.861,36.702,41.861
				c20.269,0,36.705-18.742,36.705-41.861C875.814,111,859.378,92.257,839.109,92.257z"/>
			<path fill="none" d="M1004.454,89.98c-8.977,0-16.235,2.909-21.75,8.7c-5.534,5.818-9.147,13.583-10.839,23.336h64.371
				c-1.312-9.568-4.689-17.294-10.131-23.191C1020.666,92.929,1013.47,89.98,1004.454,89.98z"/>
			<path fill="none" d="M669.48,92.257c-20.276,0-36.709,18.743-36.709,41.868c0,23.119,16.433,41.861,36.709,41.861
				c20.269,0,36.701-18.742,36.701-41.861C706.182,111,689.749,92.257,669.48,92.257z"/>
			<path d="M1073.441,106.689c-2.893-9.825-7.41-18.539-13.491-26.113c-6.074-7.607-13.714-13.648-22.895-18.137
				c-9.181-4.508-20.039-6.739-32.602-6.739c-11.043,0-21.111,2.066-30.184,6.192c-9.104,4.106-16.916,9.727-23.464,16.854
				c-6.562,7.12-11.658,15.445-15.32,25c-3.646,9.549-5.469,19.651-5.469,30.338v0.546c0,11.642,1.964,22.165,5.906,31.627
				c3.922,9.45,9.4,17.657,16.416,24.586c7.041,6.917,15.366,12.267,25.014,16.005c9.647,3.744,20.092,5.62,31.325,5.62
				c13.682,0,25.573-2.494,35.688-7.437c10.118-4.975,21.684-15.551,25.843-20.658l-24.435-21.625
				c-5.995,5.442-11.793,9.371-17.42,11.793c-5.623,2.422-11.997,3.659-19.117,3.659c-9.539,0-17.552-2.494-24.023-7.449
				c-6.459-4.969-10.711-12.333-12.773-22.066h104.791c0.197-2.04,0.335-4.014,0.431-5.89c0.089-1.876,0.142-3.64,0.142-5.331
				C1077.805,126.774,1076.347,116.521,1073.441,106.689z M971.865,122.016c1.691-9.753,5.305-17.518,10.839-23.336
				c5.515-5.791,12.773-8.7,21.75-8.7c9.016,0,16.212,2.948,21.651,8.845c5.441,5.896,8.818,13.623,10.131,23.191H971.865z"/>
			<polygon points="481.629,95.903 430.462,13.596 384.294,13.596 384.294,209.371 426.57,209.371 426.57,81.998 480.787,164.305 
				481.908,164.305 536.698,81.162 536.698,209.259 578.943,209.259 578.943,13.596 532.789,13.596 			"/>
			<path d="M706.182,71.949c-5.426-5.206-17.005-13.991-34.385-15.241c-1.105-0.132-2.215-0.224-3.33-0.224
				c-43.026,0-77.905,34.878-77.905,77.911c0,40.65,31.141,74.008,70.863,77.569c2.195,0.217,4.317,0.322,6.371,0.316
				c0.224,0,0.443,0.013,0.671,0.013c0.105,0,0.217-0.013,0.322-0.013c0.579-0.007,1.158-0.033,1.734-0.073
				c0.171-0.006,0.346-0.013,0.513-0.026c17.799-1.046,29.641-9.997,35.146-15.281v12.596h42.697V56.03h-42.697V71.949z
				 M669.48,175.986c-20.276,0-36.709-18.742-36.709-41.861c0-23.125,16.433-41.868,36.709-41.868
				c20.269,0,36.701,18.743,36.701,41.868C706.182,157.244,689.749,175.986,669.48,175.986z"/>
			<path d="M875.814,71.949c-5.427-5.206-17.009-13.991-34.383-15.241c-1.105-0.132-2.217-0.224-3.333-0.224
				c-43.028,0-77.907,34.878-77.907,77.911c0,40.65,31.144,74.008,70.869,77.569c2.191,0.217,4.313,0.322,6.364,0.316
				c0.224,0,0.447,0.013,0.674,0.013c0.108,0,0.214-0.013,0.323-0.013c0.582-0.007,1.154-0.033,1.733-0.073
				c0.171-0.006,0.343-0.013,0.514-0.026c17.798-1.046,29.64-9.997,35.146-15.281v12.596h42.696V13.451h-42.696V71.949z
				 M839.109,175.986c-20.27,0-36.702-18.742-36.702-41.861c0-23.125,16.433-41.868,36.702-41.868
				c20.269,0,36.705,18.743,36.705,41.868C875.814,157.244,859.378,175.986,839.109,175.986z"/>
			<path d="M1167.785,48.133h-73.897V8.397h193.281v39.736h-76.286v160.916h-43.098V48.133z"/>
			<path d="M1254.39,134.889v-0.56c0-42.815,30.502-78.076,74.156-78.076c50.097,0,73.041,38.899,73.041,81.432
				c0,3.363-0.279,7.278-0.559,11.194h-104.383c4.202,19.315,17.63,29.39,36.662,29.39c14.271,0,24.622-4.481,36.379-15.393
				l24.343,21.546c-13.991,17.354-34.139,27.982-61.281,27.982C1287.688,212.405,1254.39,180.784,1254.39,134.889z
				 M1360.171,122.299c-2.518-19.032-13.715-31.904-31.625-31.904c-17.627,0-29.101,12.596-32.46,31.904H1360.171z"/>
			<path d="M1413.203,134.889v-0.56c0-42.815,32.739-78.076,78.635-78.076c28.262,0,45.895,9.516,59.886,25.185l-26.024,27.982
				c-9.516-10.069-19.028-16.505-34.142-16.505c-21.27,0-36.379,18.749-36.379,40.854v0.56c0,22.947,14.83,41.42,38.058,41.42
				c14.273,0,24.066-6.16,34.421-15.952l24.909,25.185c-14.558,15.952-31.345,27.423-61.288,27.423
				C1446.223,212.405,1413.203,177.71,1413.203,134.889z"/>
			<path d="M1563.385,0h42.536v80.32c9.792-12.589,22.388-24.066,43.934-24.066c32.181,0,50.933,21.27,50.933,55.688v97.107h-42.535
				v-83.676c0-20.144-9.516-30.502-25.744-30.502c-16.235,0-26.587,10.358-26.587,30.502v83.676h-42.536V0z"/>
		</g>
		<polygon opacity="0.6" fill="#8CC641" enable-background="new    " points="0,173.085 104.668,16.467 209.332,173.085 		"/>
		<polygon opacity="0.9" fill="#40C842" enable-background="new    " points="104.668,173.085 209.332,16.467 314,173.085 		"/>
	</g>
</g>
</svg>
