<?xml version="1.0" encoding="utf-8"?>
<!-- Generator: Adobe Illustrator 16.0.0, SVG Export Plug-In . SVG Version: 6.00 Build 0)  -->
<!DOCTYPE svg PUBLIC "-//W3C//DTD SVG 1.1//EN" "http://www.w3.org/Graphics/SVG/1.1/DTD/svg11.dtd">
<svg version="1.1" id="Layer_1" xmlns="http://www.w3.org/2000/svg" xmlns:xlink="http://www.w3.org/1999/xlink" x="0px" y="0px"
	 width="137.002px" height="137.002px" viewBox="0 0 137.002 137.002" enable-background="new 0 0 137.002 137.002"
	 xml:space="preserve">
<g>
	<polygon fill="#640D0D" points="640.304,187.594 641.464,187.594 641.464,191.209 642.095,191.209 642.095,187.594 
		643.253,187.594 643.253,186.963 640.304,186.963 	"/>
	<polygon fill="#640D0D" points="647.354,186.963 646.114,190.079 644.877,186.963 643.979,186.963 643.979,191.209 
		644.606,191.209 644.606,187.978 645.906,191.209 646.324,191.209 647.623,187.978 647.623,191.209 648.251,191.209 
		648.251,186.963 	"/>
</g>
<path fill="#FFFFFF" d="M137.001,68.501c0,37.832-30.668,68.5-68.5,68.5C30.669,137.001,0,106.333,0,68.501s30.669-68.5,68.501-68.5
	C106.333,0.001,137.001,30.669,137.001,68.501z M28.49,109.901h17.422v-55.31H28.49V109.901z M37.201,27.101
	c-5.572,0-10.101,4.466-10.101,9.963c0,5.507,4.528,9.961,10.101,9.961c5.579,0,10.106-4.454,10.106-9.961
	C47.308,31.566,42.78,27.101,37.201,27.101 M55.548,109.901H72.97V82.55c0-7.213,1.391-14.203,10.448-14.203
	c8.943,0,9.062,8.244,9.062,14.662v26.893h17.422V79.569c0-14.888-3.25-26.342-20.908-26.342c-8.475,0-14.168,4.58-16.489,8.934
	h-0.234v-7.561H55.548V109.901z"/>
</svg>
