<?xml version="1.0" encoding="utf-8"?>
<!-- Generator: Adobe Illustrator 16.0.0, SVG Export Plug-In . SVG Version: 6.00 Build 0)  -->
<!DOCTYPE svg PUBLIC "-//W3C//DTD SVG 1.1//EN" "http://www.w3.org/Graphics/SVG/1.1/DTD/svg11.dtd">
<svg version="1.1" id="Layer_1" xmlns="http://www.w3.org/2000/svg" xmlns:xlink="http://www.w3.org/1999/xlink" x="0px" y="0px"
	 width="72px" height="72px" viewBox="0 0 72 72" enable-background="new 0 0 72 72" xml:space="preserve">
<path fill="#FFFFFF" d="M72,36c0,19.882-16.118,36-36,36S0,55.882,0,36S16.118,0,36,0S72,16.118,72,36z M60.484,20.813
	c-1.802,0.799-3.738,1.339-5.77,1.582c2.074-1.244,3.667-3.212,4.417-5.559c-1.94,1.151-4.091,1.988-6.379,2.438
	c-1.832-1.951-4.444-3.172-7.333-3.172c-5.549,0-10.047,4.498-10.047,10.046c0,0.787,0.088,1.555,0.26,2.29
	c-8.35-0.419-15.752-4.419-20.707-10.497c-0.865,1.483-1.36,3.209-1.36,5.05c0,3.485,1.772,6.56,4.469,8.362
	c-1.646-0.052-3.196-0.504-4.55-1.257c-0.001,0.042-0.001,0.083-0.001,0.125c0,4.868,3.463,8.929,8.059,9.852
	c-0.843,0.229-1.731,0.352-2.647,0.352c-0.648,0-1.277-0.062-1.891-0.18c1.279,3.991,4.989,6.896,9.385,6.977
	c-3.438,2.694-7.77,4.3-12.476,4.3c-0.811,0-1.611-0.047-2.397-0.14c4.446,2.85,9.726,4.513,15.4,4.513
	c18.478,0,28.583-15.308,28.583-28.584c0-0.435-0.009-0.869-0.029-1.3C57.433,24.597,59.137,22.829,60.484,20.813z"/>
</svg>
